<svg width="314.258" height="62.211" viewBox="0 0 314.258 62.211" xmlns="http://www.w3.org/2000/svg"><g id="svgGroup" stroke-linecap="round" fill-rule="evenodd" font-size="9pt" stroke="#000" stroke-width="0.25mm" fill="#000" style="stroke:#000;stroke-width:0.25mm;fill:#000"><path d="M 0 61.133 L 42.773 61.133 L 43.262 41.602 L 41.309 41.602 L 39.648 48.145 Q 37.582 56.067 33.086 57.991 A 7.456 7.456 0 0 1 31.836 58.399 A 14.334 14.334 0 0 1 30.271 58.575 A 12.343 12.343 0 0 1 29.59 58.594 L 16.211 58.594 L 16.211 5.079 L 24.414 5.079 L 24.414 2.54 L 0 2.54 L 0 5.079 L 7.813 5.079 L 7.813 58.594 L 0 58.594 L 0 61.133 Z M 266.797 18.067 L 266.797 30.274 L 264.258 30.274 Q 264.105 23.228 258.065 21.648 A 15.539 15.539 0 0 0 254.297 21.192 A 19.05 19.05 0 0 0 251.181 21.426 Q 249.596 21.69 248.396 22.251 A 6.038 6.038 0 0 0 245.215 25.489 A 6.287 6.287 0 0 0 244.727 27.93 Q 244.727 31.153 248.293 33.628 A 18.492 18.492 0 0 0 250.781 35.059 A 25.805 25.805 0 0 0 251.563 35.432 Q 252.881 36.036 255.078 36.915 A 67.61 67.61 0 0 1 258.704 38.508 Q 263.647 40.87 265.625 43.067 A 10.681 10.681 0 0 1 268.457 50.489 Q 268.457 56.655 263.353 59.617 A 16.241 16.241 0 0 1 260.059 61.036 A 21.055 21.055 0 0 1 255.123 62.025 A 25.362 25.362 0 0 1 253.027 62.11 Q 245.996 62.012 240.82 58.594 A 7.784 7.784 0 0 1 240.768 59.537 Q 240.562 61.213 239.551 61.524 Q 238.965 61.622 238.184 61.622 L 238.184 46.778 L 240.918 46.778 A 21.648 21.648 0 0 0 241.47 51.536 Q 243.086 58.187 249.403 59.265 A 15.416 15.416 0 0 0 251.855 59.473 A 17.142 17.142 0 0 0 255.082 59.192 Q 259.207 58.4 260.938 55.372 Q 261.816 53.907 261.816 52.149 A 5.757 5.757 0 0 0 260.373 48.395 Q 258.896 46.619 255.904 45.14 A 23.826 23.826 0 0 0 255.859 45.118 Q 254.637 44.46 251.877 43.259 A 161.457 161.457 0 0 0 251.66 43.165 Q 243.652 39.844 241.016 36.915 A 11.037 11.037 0 0 1 238.184 29.395 Q 238.184 24.137 242.702 21.317 A 15.766 15.766 0 0 1 245.605 19.923 A 20.528 20.528 0 0 1 251.425 18.705 A 24.19 24.19 0 0 1 253.027 18.653 A 25.545 25.545 0 0 1 258.507 19.214 A 19.377 19.377 0 0 1 264.16 21.387 Q 264.16 18.555 265.527 18.165 A 7.146 7.146 0 0 1 266.298 18.081 A 8.832 8.832 0 0 1 266.797 18.067 Z M 116.699 22.071 L 123.535 22.071 L 123.535 19.63 L 104.59 19.63 L 104.59 22.071 L 108.984 22.071 L 120.898 54.786 A 27.595 27.595 0 0 0 121.772 56.959 Q 122.751 59.103 123.82 60.189 A 3.869 3.869 0 0 0 125.195 61.133 A 5.782 5.782 0 0 0 126.311 61.463 Q 126.866 61.571 127.51 61.606 A 11.559 11.559 0 0 0 128.125 61.622 L 129.395 61.622 L 143.164 25.489 A 11.313 11.313 0 0 1 143.72 24.258 Q 144.392 22.995 145.199 22.485 A 2.195 2.195 0 0 1 145.996 22.169 Q 146.484 22.071 146.875 22.071 A 4.699 4.699 0 0 0 147.694 22.006 Q 149.065 21.762 149.219 20.606 Q 149.316 20.118 149.316 19.63 L 134.277 19.63 L 134.277 22.071 L 141.602 22.071 L 129.199 55.372 L 116.699 22.071 Z M 219.727 58.692 L 212.695 58.692 L 212.695 39.258 A 23.402 23.402 0 0 1 213.513 32.911 A 17.536 17.536 0 0 1 218.164 25.001 Q 219.85 23.391 221.115 22.985 A 2.771 2.771 0 0 1 221.777 22.852 A 2.428 2.428 0 0 1 223.222 23.353 Q 224.003 23.919 224.708 25.124 A 10.411 10.411 0 0 1 224.805 25.294 A 15.603 15.603 0 0 0 225.526 26.447 Q 226.282 27.535 226.99 28.042 A 2.443 2.443 0 0 0 227.734 28.419 A 3.69 3.69 0 0 0 228.888 28.614 A 3.522 3.522 0 0 0 228.906 28.614 A 4.546 4.546 0 0 0 230.384 28.39 Q 232.056 27.817 232.617 25.782 A 3.69 3.69 0 0 0 232.812 24.628 A 3.522 3.522 0 0 0 232.813 24.61 A 6.396 6.396 0 0 0 232.477 22.462 Q 231.584 19.948 228.32 19.239 A 10.169 10.169 0 0 0 227.138 19.071 A 8.438 8.438 0 0 0 226.465 19.044 Q 220.605 19.044 216.016 24.024 Q 213.867 26.368 212.598 29.298 L 212.207 19.63 L 198.047 19.63 L 198.047 22.071 L 205.371 22.071 L 205.371 52.833 A 12.133 12.133 0 0 1 205.25 54.625 Q 204.923 56.803 203.718 57.73 A 3.109 3.109 0 0 1 202.832 58.204 A 6.814 6.814 0 0 1 201.892 58.434 Q 200.459 58.692 198.047 58.692 L 198.047 61.133 L 222.168 61.133 A 4.699 4.699 0 0 0 222.103 60.314 Q 221.859 58.944 220.703 58.79 Q 220.412 58.717 220.012 58.698 A 6.178 6.178 0 0 0 219.727 58.692 Z M 74.512 19.63 L 74.512 22.071 L 81.348 22.071 L 81.348 49.61 A 20.944 20.944 0 0 0 82.141 54.46 Q 84.38 61.904 92.578 62.208 A 10.724 10.724 0 0 0 97.906 60.933 Q 102.326 58.457 103.809 51.173 L 103.809 50.977 L 101.172 50.489 A 25.594 25.594 0 0 1 99.95 53.781 Q 98.33 57.308 96.033 58.598 A 5.719 5.719 0 0 1 94.043 59.278 A 5.359 5.359 0 0 1 91.339 58.516 Q 88.74 56.88 88.672 51.758 L 88.672 22.071 L 103.809 22.071 L 103.809 19.63 L 88.672 19.63 L 88.672 8.301 L 81.348 10.352 L 81.348 19.63 L 74.512 19.63 Z M 190.918 51.758 L 188.477 50.88 A 16.157 16.157 0 0 1 185.516 55.342 Q 182.363 58.636 177.48 59.273 A 17.012 17.012 0 0 1 177.441 59.278 A 19.673 19.673 0 0 1 176.145 59.366 A 16.666 16.666 0 0 1 175.586 59.376 Q 165.332 59.376 162.695 47.169 A 34.366 34.366 0 0 1 162.009 42.869 A 43.59 43.59 0 0 1 161.816 39.649 L 173.535 39.844 Q 184.863 40.03 188.51 37.832 A 5.481 5.481 0 0 0 188.867 37.598 A 6.318 6.318 0 0 0 191.457 32.962 A 9.062 9.062 0 0 0 191.504 32.032 Q 191.504 25.391 184.766 21.485 A 20.329 20.329 0 0 0 176.58 18.809 A 25.505 25.505 0 0 0 173.73 18.653 Q 161.845 18.653 156.532 28.282 A 23.701 23.701 0 0 0 156.25 28.809 A 24.453 24.453 0 0 0 153.666 37.686 A 30.101 30.101 0 0 0 153.516 40.723 A 26.612 26.612 0 0 0 154.451 47.997 A 18.662 18.662 0 0 0 162.207 58.692 A 20.749 20.749 0 0 0 173.097 62.093 A 25.222 25.222 0 0 0 174.023 62.11 A 22.961 22.961 0 0 0 180.277 61.309 A 15.911 15.911 0 0 0 189.551 54.493 A 26.908 26.908 0 0 0 190.844 51.929 A 24.774 24.774 0 0 0 190.918 51.758 Z M 313.672 51.758 L 311.23 50.88 A 16.157 16.157 0 0 1 308.27 55.342 Q 305.117 58.636 300.234 59.273 A 17.012 17.012 0 0 1 300.195 59.278 A 19.673 19.673 0 0 1 298.899 59.366 A 16.666 16.666 0 0 1 298.34 59.376 Q 288.086 59.376 285.449 47.169 A 34.366 34.366 0 0 1 284.762 42.869 A 43.59 43.59 0 0 1 284.57 39.649 L 296.289 39.844 Q 307.617 40.03 311.264 37.832 A 5.481 5.481 0 0 0 311.621 37.598 A 6.318 6.318 0 0 0 314.211 32.962 A 9.062 9.062 0 0 0 314.258 32.032 Q 314.258 25.391 307.52 21.485 A 20.329 20.329 0 0 0 299.334 18.809 A 25.505 25.505 0 0 0 296.484 18.653 Q 284.599 18.653 279.286 28.282 A 23.701 23.701 0 0 0 279.004 28.809 A 24.453 24.453 0 0 0 276.42 37.686 A 30.101 30.101 0 0 0 276.27 40.723 A 26.612 26.612 0 0 0 277.205 47.997 A 18.662 18.662 0 0 0 284.961 58.692 A 20.749 20.749 0 0 0 295.851 62.093 A 25.222 25.222 0 0 0 296.777 62.11 A 22.961 22.961 0 0 0 303.031 61.309 A 15.911 15.911 0 0 0 312.305 54.493 A 26.908 26.908 0 0 0 313.598 51.929 A 24.774 24.774 0 0 0 313.672 51.758 Z M 67.188 58.692 L 62.305 58.692 L 62.305 19.63 L 47.168 19.63 L 47.168 22.071 L 54.98 22.071 L 54.98 52.833 Q 54.98 55.122 54.195 56.498 A 3.849 3.849 0 0 1 51.953 58.301 A 8.157 8.157 0 0 1 51.044 58.481 Q 50.067 58.625 48.627 58.67 A 45.993 45.993 0 0 1 47.168 58.692 L 47.168 61.133 L 69.629 61.133 A 4.699 4.699 0 0 0 69.564 60.314 Q 69.32 58.944 68.164 58.79 Q 67.676 58.692 67.188 58.692 Z M 172.168 37.208 L 161.816 36.915 A 29.391 29.391 0 0 1 162.457 31.788 Q 164.014 24.83 169.141 22.266 A 10.198 10.198 0 0 1 173.926 21.094 Q 180.685 21.094 182.957 26.727 A 11.889 11.889 0 0 1 183.008 26.856 A 10.13 10.13 0 0 1 183.785 30.559 A 11.651 11.651 0 0 1 183.789 30.86 Q 183.789 35.743 179.102 36.817 A 16.882 16.882 0 0 1 177.691 37.032 Q 175.49 37.28 172.168 37.208 Z M 294.922 37.208 L 284.57 36.915 A 29.391 29.391 0 0 1 285.211 31.788 Q 286.768 24.83 291.895 22.266 A 10.198 10.198 0 0 1 296.68 21.094 Q 303.439 21.094 305.711 26.727 A 11.889 11.889 0 0 1 305.762 26.856 A 10.13 10.13 0 0 1 306.539 30.559 A 11.651 11.651 0 0 1 306.543 30.86 Q 306.543 35.743 301.855 36.817 A 16.882 16.882 0 0 1 300.445 37.032 Q 298.244 37.28 294.922 37.208 Z M 63.477 5.372 A 5.973 5.973 0 0 0 63.135 3.296 Q 62.549 1.705 60.96 0.762 A 6.843 6.843 0 0 0 60.449 0.489 A 6.672 6.672 0 0 0 59.302 0.123 A 5.163 5.163 0 0 0 58.203 0.001 A 5.777 5.777 0 0 0 56.084 0.37 Q 54.605 0.948 53.693 2.432 A 6.97 6.97 0 0 0 53.32 3.126 A 5.368 5.368 0 0 0 52.832 5.372 Q 52.832 8.674 55.525 10.101 A 6.836 6.836 0 0 0 56.055 10.352 Q 57.129 10.743 58.203 10.743 A 5.745 5.745 0 0 0 60.225 10.406 Q 62.07 9.717 62.988 7.618 A 5.368 5.368 0 0 0 63.477 5.372 Z" vector-effect="non-scaling-stroke"/></g></svg>